:version 1.10
:name ASF
:units
  mass 1
  length 1
  angle deg
:documentation
  ASF file generated by Kaydara
:root
  axis xyz
  order  tx ty tz rx ry rz
  position 0 0 0
  orientation 0 0 0
:bonedata
  begin
    id 1
    name SpineDummy
    direction 0.999998 -0.00179978 1.38929e-006
    length 3.60008
    axis 0 0 0 xyz
  end
  begin
    id 2
    name Spine
    direction 0.964365 0.262802 0.0305839
    length 8.13928
    axis 1.33928 -1.75354 15.2838 xyz
    dof rx ry rz
  end
  begin
    id 3
    name Spine1
    direction 0.811168 0.572065 0.12144
    length 7.14954
    axis 2.2224 -6.9761 35.2157 xyz
    dof rx ry rz
  end
  begin
    id 4
    name Neck
    direction 0 0 0
    length 0
    axis 2.2224 -6.9761 35.2157 xyz
    dof rx ry rz
  end
  begin
    id 5
    name HeadDummy
    direction 0.810939 0.572387 0.121455
    length 3.55534
    axis 2.2224 -6.9761 35.2157 xyz
  end
  begin
    id 6
    name Head
    direction 0.998226 -0.000232542 0.0595419
    length 7.35666
    axis -3.03688 -3.41352 -0.0133467 xyz
    dof rx ry rz
  end
  begin
    id 7
    name R_ClavicleDummy
    direction 0.531669 -0.194489 -0.824319
    length 2.49392
    axis 2.2224 -6.9761 35.2157 xyz
  end
  begin
    id 8
    name R_Clavicle
    direction -0.155119 0.0480802 -0.986725
    length 4.485
    axis -54.2764 80.6538 162.779 xyz
    dof rx ry rz
  end
  begin
    id 9
    name R_UpperArm
    direction -0.955567 0.200068 -0.216484
    length 10.1122
    axis -72.9943 12.5026 168.175 xyz
    dof rx ry rz
  end
  begin
    id 10
    name R_Forearm
    direction -0.61433 0.385743 0.688332
    length 9.39148
    axis -117.015 -43.4982 147.875 xyz
    dof rx ry rz
  end
  begin
    id 11
    name R_Hand
    direction -0.699429 0.0170333 0.714499
    length 3.66324
    axis -45.0303 -36.7097 175.478 xyz
    dof rx ry rz
  end
  begin
    id 12
    name L_ClavicleDummy
    direction 0.40287 -0.36502 0.839319
    length 2.49392
    axis 2.2224 -6.9761 35.2157 xyz
  end
  begin
    id 13
    name L_Clavicle
    direction -0.231271 -0.0726419 0.970174
    length 4.485
    axis 18.4357 -75.9711 -162.563 xyz
    dof rx ry rz
  end
  begin
    id 14
    name L_UpperArm
    direction -0.917494 0.144359 0.370629
    length 10.1122
    axis 56.0417 -21.7544 171.058 xyz
    dof rx ry rz
  end
  begin
    id 15
    name L_Forearm
    direction -0.496786 0.615074 -0.612281
    length 9.39148
    axis 89.8094 37.7546 128.927 xyz
    dof rx ry rz
  end
  begin
    id 16
    name L_Hand
    direction -0.409932 0.64962 -0.640274
    length 3.66324
    axis -0.424369 32.133 128.52 xyz
    dof rx ry rz
  end
  begin
    id 17
    name L_ThighDummy
    direction -1.84081e-006 1.87549e-006 1
    length 3.13049
    axis 0 0 0 xyz
  end
  begin
    id 18
    name L_Thigh
    direction -0.947739 0.307978 0.083308
    length 17.9961
    axis 173.219 -4.77873 161.998 xyz
    dof rx ry rz
  end
  begin
    id 19
    name L_Calf
    direction -0.728814 -0.684427 0.0197583
    length 13.3367
    axis 167.331 -1.13214 -136.799 xyz
    dof rx ry rz
  end
  begin
    id 20
    name L_Foot
    direction -0.9028 0.418719 0.0981191
    length 5.8674
    axis 163.436 11.5135 -155.37 xyz
    dof rx ry rz
  end
  begin
    id 21
    name L_Toe0
    direction -0.35341 0.886259 0.299411
    length 4.75286
    axis 169.316 -17.4222 111.74 xyz
    dof rx ry rz
  end
  begin
    id 22
    name R_ThighDummy
    direction 9.32778e-007 -8.82053e-007 -1
    length 3.13049
    axis 0 0 0 xyz
  end
  begin
    id 23
    name R_Thigh
    direction -0.925064 0.37528 -0.0585023
    length 17.9961
    axis -178.698 3.35385 157.919 xyz
    dof rx ry rz
  end
  begin
    id 24
    name R_Calf
    direction -0.68969 -0.718776 -0.0876886
    length 13.3367
    axis -160.504 5.03065 -133.817 xyz
    dof rx ry rz
  end
  begin
    id 25
    name R_Foot
    direction -0.857405 0.418858 -0.299022
    length 5.8674
    axis -161.328 4.38911 -154.413 xyz
    dof rx ry rz
  end
  begin
    id 26
    name R_Toe0
    direction -0.100745 0.952789 -0.286433
    length 4.75286
    axis 171.683 16.6445 96.0359 xyz
    dof rx ry rz
  end
:hierarchy
  begin
    root SpineDummy L_ThighDummy R_ThighDummy
    SpineDummy Spine
    Spine Spine1
    Spine1 Neck
    Neck HeadDummy R_ClavicleDummy L_ClavicleDummy
    HeadDummy Head
    R_ClavicleDummy R_Clavicle
    R_Clavicle R_UpperArm
    R_UpperArm R_Forearm
    R_Forearm R_Hand
    L_ClavicleDummy L_Clavicle
    L_Clavicle L_UpperArm
    L_UpperArm L_Forearm
    L_Forearm L_Hand
    L_ThighDummy L_Thigh
    L_Thigh L_Calf
    L_Calf L_Foot
    L_Foot L_Toe0
    R_ThighDummy R_Thigh
    R_Thigh R_Calf
    R_Calf R_Foot
    R_Foot R_Toe0
  end

:SAMPLES-PER-SECOND 30
:FULLY-SPECIFIED
:DEGREES
255
root  25.0702 14.5352 -23.1681 -166.331 -5.25314 -154.233
Spine  4.37788 6.27047 20.2593
Spine1  4.83689 19.6092 15.5031
Neck  3.97569e-016 0 -2.38542e-015
Head  -7.22247 -6.44606 61.164
R_Clavicle  0.322651 -34.7418 2.95601
R_UpperArm  24.7946 -31.0749 86.1298
R_Forearm  -6.57509 -10.0132 -4.41957
R_Hand  -23.4152 43.2628 -68.0466
L_Clavicle  -0.441137 19.8533 3.53005
L_UpperArm  17.8098 57.7886 117.828
L_Forearm  54.7068 -8.27179 -6.42102
L_Hand  15.1294 -37.8465 -47.3926
L_Thigh  0.370186 50.7325 52.5289
L_Calf  -34.6726 -5.67032 41.9341
L_Foot  65.1419 45.9171 68.4084
L_Toe0  0.505156 0.0344458 -6.1361
R_Thigh  -4.87751 -55.8625 0.494821
R_Calf  20.2693 12.5796 42.1908
R_Foot  0.616589 -12.6623 -18.9735
R_Toe0  -1.78853 -0.272124 -17.3235
256
root  25.504 13.8032 -24.177 178.824 -10.1259 -153.661
Spine  3.90987 3.11917 21.8567
Spine1  4.89085 16.2392 16.1329
Neck  3.97569e-016 0 -2.38542e-015
Head  -6.86315 -7.32362 61.5835
R_Clavicle  0.232367 -35.169 3.62745
R_UpperArm  20.1209 -37.77 89.2552
R_Forearm  -29.4104 4.38082 -14.4761
R_Hand  -22.8807 52.0969 -60.6153
L_Clavicle  -0.443574 22.412 3.35634
L_UpperArm  25.4302 46.9841 114.17
L_Forearm  42.8782 -6.00377 -9.15098
L_Hand  17.7319 -43.9695 -46.2775
L_Thigh  7.63378 45.9916 62.8139
L_Calf  -21.4058 -5.05506 38.9036
L_Foot  4.55221 8.14494 16.5134
L_Toe0  0.505156 0.0344458 -6.1361
R_Thigh  5.36222 -52.0892 -4.39596
R_Calf  12.7343 10.6222 35.3358
R_Foot  0.683411 -8.81381 -16.9553
R_Toe0  -1.78853 -0.272108 -17.3235
257
root  25.3862 12.9778 -25.6435 162.907 -17.335 -157.299
Spine  3.17139 0.20993 19.5401
Spine1  3.41097 6.71011 16.0068
Neck  3.97569e-016 0 -2.38542e-015
Head  -6.5433 -2.45913 63.2122
R_Clavicle  0.331296 -28.2919 3.71848
R_UpperArm  25.0733 -45.4518 77.2094
R_Forearm  -42.9849 4.10649 -10.7873
R_Hand  -17.6572 50.931 -51.8465
L_Clavicle  -0.488753 23.2616 2.67653
L_UpperArm  24.6262 38.0624 105.464
L_Forearm  25.8614 0.314602 -11.3767
L_Hand  23.6878 -47.8493 -54.5616
L_Thigh  8.39946 40.7563 69.4266
L_Calf  -22.5386 -5.2438 39.9191
L_Foot  7.95388 9.56305 18.7285
L_Toe0  0.505156 0.0344458 -6.1361
R_Thigh  16.6084 -48.5242 -5.11152
R_Calf  6.62175 9.54382 31.1969
R_Foot  0.702675 -6.98333 -15.6409
R_Toe0  -1.78853 -0.272092 -17.3235
258
root  24.3743 12.2078 -27.2271 147.44 -30.0289 -161.275
Spine  2.58216 -2.07048 15.6938
Spine1  1.42171 -6.71297 16.0163
Neck  3.97569e-016 0 -2.38542e-015
Head  -9.37756 6.7933 62.9911
R_Clavicle  0.45034 -20.5011 3.90194
R_UpperArm  26.4987 -51.4925 68.251
R_Forearm  -46.1473 2.80983 -9.32529
R_Hand  -22.7989 55.8203 -57.8563
L_Clavicle  -0.556482 22.141 1.39521
L_UpperArm  20.3597 29.3668 95.3985
L_Forearm  6.89234 5.93453 -12.6278
L_Hand  22.9605 -44.5335 -57.4777
L_Thigh  11.6169 36.6201 73.6174
L_Calf  -13.4454 -5.07948 40.8779
L_Foot  8.92743 11.0281 19.8386
L_Toe0  0.505156 0.0344458 -6.1361
R_Thigh  24.5416 -47.0336 -2.15267
R_Calf  2.48358 8.85356 28.6808
R_Foot  1.82989 -0.285737 -16.9239
R_Toe0  -1.78853 -0.272075 -17.3235
259
root  22.7209 11.9059 -28.5997 129.829 -44.6305 -154.851
Spine  0.667609 -5.7181 17.7348
Spine1  -1.45963 -17.1339 15.3324
Neck  3.97569e-016 0 -2.38542e-015
Head  -14.1448 12.9183 59.6002
R_Clavicle  0.575636 -14.8695 4.41872
R_UpperArm  25.9037 -56.9101 62.3672
R_Forearm  -46.9688 2.32634 -9.39299
R_Hand  -33.9818 61.4749 -70.7859
L_Clavicle  -0.554282 20.0005 0.432235
L_UpperArm  15.5582 19.3921 84.0276
L_Forearm  -7.07202 5.59886 -14.3314
L_Hand  8.87489 -34.5447 -33.5412
L_Thigh  14.3582 29.4941 71.607
L_Calf  -16.9999 -4.65797 42.4363
L_Foot  8.15189 10.9009 17.7665
L_Toe0  0.505156 0.0344458 -6.1361
R_Thigh  30.6533 -51.1867 -2.9099
R_Calf  -6.97957 7.98718 25.5531
R_Foot  2.72388 6.63963 -15.5537
R_Toe0  -1.78853 -0.272059 -17.3235
260
root  21.0593 12.0905 -29.5875 102.396 -52.9641 -134.247
Spine  -2.80827 -12.0463 26.2182
Spine1  -4.04739 -22.3155 13.106
Neck  3.97569e-016 0 -2.38542e-015
Head  -16.9676 12.4981 56.1843
R_Clavicle  0.712009 -10.5947 4.89172
R_UpperArm  31.7685 -61.8447 53.6862
R_Forearm  -49.3247 2.02382 -7.6106
R_Hand  -49.3097 65.1925 -87.9819
L_Clavicle  -0.499163 17.944 0.5468
L_UpperArm  16.0141 15.2162 68.9462
L_Forearm  -18.1359 5.46037 -2.00615
L_Hand  -0.133108 -8.39931 -7.02559
L_Thigh  12.518 22.9208 63.791
L_Calf  -24.3659 -4.36912 46.5283
L_Foot  9.20968 16.1204 14.9079
L_Toe0  0.505156 0.0344458 -6.1361
R_Thigh  28.0348 -57.3139 -4.52898
R_Calf  -16.8324 5.8199 18.1322
R_Foot  2.47638 7.12556 -8.47664
R_Toe0  -1.78853 -0.272043 -17.3235
261
root  18.5178 12.6602 -29.6571 75.5911 -58.3437 -116.899
Spine  -4.72376 -13.953 28.4837
Spine1  -5.14686 -24.7083 11.5121
Neck  3.97569e-016 0 -2.38542e-015
Head  -16.6821 10.0835 54.3486
R_Clavicle  0.831614 -7.0968 5.15792
R_UpperArm  40.9078 -65.4031 45.2587
R_Forearm  -48.2867 1.56784 -4.68143
R_Hand  -76.0279 63.1385 -120.367
L_Clavicle  -0.440183 15.3138 1.2873
L_UpperArm  0.875133 20.864 51.2744
L_Forearm  -44.6155 16.2886 20.6026
L_Hand  2.25559 13.8168 11.0249
L_Thigh  10.868 19.0926 63.1332
L_Calf  -23.4295 -3.84342 48.6728
L_Foot  8.14106 14.8949 13.2388
L_Toe0  0.505156 0.0344458 -6.1361
R_Thigh  22.8384 -53.3281 -5.11654
R_Calf  -14.3487 5.62029 17.4742
R_Foot  3.07286 10.1395 -6.30278
R_Toe0  -1.78853 -0.272026 -17.3235
262
root  15.6619 13.6206 -28.3428 42.9517 -66.4564 -94.873
Spine  -4.43536 -12.2113 22.6775
Spine1  -5.30697 -26.746 11.5663
Neck  3.97569e-016 0 -2.38542e-015
Head  -16.3188 9.5907 52.898
R_Clavicle  0.949923 -3.89497 5.37836
R_UpperArm  49.4374 -67.4199 38.9086
R_Forearm  -39.0202 0.152428 -1.34742
R_Hand  -86.7263 50.1064 -142.988
L_Clavicle  -0.396727 11.7756 1.73569
L_UpperArm  -14.6585 22.1306 47.935
L_Forearm  -51.804 9.38144 10.99
L_Hand  0.637085 12.9077 4.44978
L_Thigh  11.1604 18.4025 68.6845
L_Calf  -21.4452 -3.74954 46.2613
L_Foot  6.9799 11.0752 13.8267
L_Toe0  0.505156 0.0344458 -6.1361
R_Thigh  32.9991 -47.0337 -5.15303
R_Calf  -15.7955 7.17962 22.7923
R_Foot  4.95086 18.9019 -9.71066
R_Toe0  -1.78853 -0.272009 -17.3235
263
root  13.3875 15.0017 -26.4261 -0.110229 -66.8347 -62.1345
Spine  -3.5154 -11.3076 17.1772
Spine1  -4.86262 -27.0177 11.7099
Neck  3.97569e-016 0 -2.38542e-015
Head  -17.4267 9.98419 52.0864
R_Clavicle  1.12545 -0.239527 5.77594
R_UpperArm  62.0769 -67.1847 29.888
R_Forearm  -24.7187 -2.08756 3.23192
R_Hand  -76.8346 35.6827 -149.393
L_Clavicle  -0.345812 8.40343 1.63842
L_UpperArm  -29.3456 24.1027 45.119
L_Forearm  -44.8952 -1.54777 -1.79985
L_Hand  -0.405754 8.47262 -3.19362
L_Thigh  11.3886 19.8837 70.5157
L_Calf  -20.4804 -4.29628 42.9122
L_Foot  8.0637 12.6792 15.3467
L_Toe0  0.505156 0.0344458 -6.1361
R_Thigh  36.9605 -41.2785 -3.39317
R_Calf  -14.938 8.512 27.5407
R_Foot  5.9014 24.994 -13.2537
R_Toe0  -1.78853 -0.271993 -17.3235
264
root  11.7678 16.7033 -24.8737 -29.5109 -58.4816 -43.5113
Spine  -2.80146 -12.3068 14.3057
Spine1  -3.69755 -25.5576 10.509
Neck  3.97569e-016 0 -2.38542e-015
Head  -18.9493 10.0675 52.4971
R_Clavicle  1.32176 3.32498 6.16289
R_UpperArm  75.6559 -65.5134 22.5666
R_Forearm  -6.77662 -1.60819 6.53161
R_Hand  -59.7276 23.3282 -150.69
L_Clavicle  -0.276212 5.90445 1.25894
L_UpperArm  -42.9462 24.0263 40.5984
L_Forearm  -33.3023 -10.5887 -12.4799
L_Hand  -0.476444 4.4742 -5.32729
L_Thigh  10.3617 22.7249 66.9098
L_Calf  -19.1455 -4.71067 41.5728
L_Foot  8.65269 14.858 14.6938
L_Toe0  0.505156 0.0344458 -6.1361
R_Thigh  33.5706 -40.2023 1.092
R_Calf  -16.7982 7.45107 23.8022
R_Foot  6.04969 24.2983 -10.5078
R_Toe0  -1.78853 -0.271976 -17.3235
265
root  10.4534 18.5925 -23.1582 -50.1917 -49.0515 -35.0191
Spine  -1.66686 -12.422 11.6308
Spine1  -1.92285 -24.2676 8.8625
Neck  3.97569e-016 0 -2.38542e-015
Head  -20.7228 10.5433 52.7071
R_Clavicle  1.31864 5.36627 5.86668
R_UpperArm  89.2138 -63.9861 19.8553
R_Forearm  15.0231 2.75779 5.45296
R_Hand  -38.5708 12.288 -148.062
L_Clavicle  -0.233154 4.21591 1.12812
L_UpperArm  -53.2253 20.588 34.0182
L_Forearm  -19.1625 -18.6909 -23.0075
L_Hand  -0.544956 2.45812 -7.54839
L_Thigh  8.92104 26.5893 61.4869
L_Calf  -18.6026 -4.81138 42.0473
L_Foot  7.83895 14.7035 12.5574
L_Toe0  0.505156 0.0344458 -6.1361
R_Thigh  26.0289 -38.8376 7.66444
R_Calf  -15.6268 6.07588 19.1681
R_Foot  5.9289 21.9628 -6.78901
R_Toe0  -1.78853 -0.271959 -17.3235
266
root  9.61489 20.7178 -20.9812 -67.9214 -39.5656 -30.067
Spine  -0.66907 -11.6152 9.74775
Spine1  -0.257402 -22.8212 6.72434
Neck  3.97569e-016 0 -2.38542e-015
Head  -24.2227 12.0813 51.5941
R_Clavicle  1.06373 6.24928 4.74451
R_UpperArm  105.388 -61.0442 20.5068
R_Forearm  29.8267 6.19993 -0.0142532
R_Hand  -21.6722 5.05744 -141.176
L_Clavicle  -0.196301 2.65049 1.02858
L_UpperArm  -56.5534 14.9598 25.1496
L_Forearm  -5.60539 -24.6744 -32.0479
L_Hand  -0.40698 -0.761156 -9.67805
L_Thigh  6.49568 30.1255 55.106
L_Calf  -16.6938 -4.97261 43.9304
L_Foot  6.48196 14.8793 8.49
L_Toe0  0.505156 0.0344458 -6.1361
R_Thigh  20.3242 -37.3614 12.534
R_Calf  -13.565 5.95543 18.7814
R_Foot  5.74138 20.5123 -4.53561
R_Toe0  -1.78853 -0.271942 -17.3235
267
root  9.26028 22.933 -19.0051 -81.3395 -29.9656 -27.4755
Spine  -1.60335 -11.8162 9.48278
Spine1  -0.202471 -18.504 2.71779
Neck  3.97569e-016 0 -2.38542e-015
Head  -29.4573 14.4277 49.6885
R_Clavicle  0.802786 8.21835 3.4757
R_UpperArm  108.413 -54.4768 28.3439
R_Forearm  36.401 7.35704 -6.64202
R_Hand  -17.1251 3.31735 -136.48
L_Clavicle  0.0148973 0.627806 -0.252484
L_UpperArm  -50.5889 10.3607 15.9425
L_Forearm  3.52197 -24.9486 -32.5029
L_Hand  -0.185638 -3.39235 -10.1472
L_Thigh  4.77259 31.147 49.5909
L_Calf  -12.4612 -4.97793 46.5883
L_Foot  3.79954 14.6478 0.662638
L_Toe0  0.505156 0.0344458 -6.1361
R_Thigh  17.8465 -39.1196 15.5633
R_Calf  -13.4202 5.64311 17.7371
R_Foot  5.19403 17.7029 -1.13222
R_Toe0  -1.78853 -0.271925 -17.3235
268
root  9.43411 24.8874 -17.4389 -94.6996 -20.885 -24.8293
Spine  -3.97936 -13.6786 9.73404
Spine1  -1.44294 -10.4467 -2.58604
Neck  3.97569e-016 0 -2.38542e-015
Head  -33.0658 15.3267 47.0857
R_Clavicle  1.19001 11.7186 5.07761
R_UpperArm  105.423 -43.0866 31.056
R_Forearm  32.4708 11.7395 -9.96967
R_Hand  -21.4698 7.32817 -131.848
L_Clavicle  0.454838 -0.304826 -3.09951
L_UpperArm  -40.62 8.02886 9.4317
L_Forearm  4.71995 -17.9188 -21.9387
L_Hand  -0.158357 -3.68791 -10.0426
L_Thigh  3.10866 33.9039 45.4162
L_Calf  -8.5195 -5.30178 48.9284
L_Foot  0.70265 12.9839 -7.91201
L_Toe0  0.505156 0.0344458 -6.1361
R_Thigh  8.94583 -38.1003 18.3107
R_Calf  -6.2681 5.18798 16.2357
R_Foot  4.78656 15.9025 1.96326
R_Toe0  -1.78853 -0.271907 -17.3235
